<svg width="150" height="150" viewBox="0 0 150 150" fill="none" xmlns="http://www.w3.org/2000/svg">
<path d="M75.0001 90.92C71.5009 90.918 68.0797 91.9538 65.1693 93.8964C62.2589 95.839 59.9899 98.6011 58.6495 101.833C57.3091 105.066 56.9573 108.623 57.6387 112.055C58.3202 115.487 60.0042 118.64 62.4778 121.115C64.9514 123.59 68.1034 125.276 71.5352 125.959C74.967 126.643 78.5244 126.293 81.7574 124.954C84.9904 123.616 87.7538 121.348 89.6981 118.439C91.6423 115.53 92.6801 112.109 92.6801 108.61C92.6748 103.922 90.8107 99.4267 87.4965 96.1106C84.1823 92.7946 79.6884 90.9279 75.0001 90.92ZM75.0001 123.29C72.0938 123.292 69.2523 122.432 66.835 120.818C64.4177 119.205 62.5333 116.911 61.4202 114.226C60.3071 111.542 60.0153 108.587 60.5818 105.737C61.1483 102.886 62.5476 100.268 64.6027 98.2126C66.6577 96.1576 69.2761 94.7583 72.1266 94.1918C74.9771 93.6253 77.9316 93.917 80.6163 95.0301C83.301 96.1432 85.5951 98.0276 87.2085 100.445C88.8219 102.862 89.682 105.704 89.6801 108.61C89.6748 112.502 88.1264 116.233 85.3745 118.984C82.6226 121.736 78.8918 123.285 75.0001 123.29Z" fill="#FF5F46"/>
<path d="M86.32 82H66.88V66C66.8799 63.8886 67.7146 61.8628 69.2019 60.3643C70.6892 58.8657 72.7087 58.0158 74.82 58H75.17C77.271 58.0157 79.2814 58.8573 80.7671 60.3429C82.2527 61.8286 83.0943 63.839 83.11 65.94V76.75H86.11V65.9C86.0838 63.0103 84.9215 60.2471 82.8744 58.2074C80.8273 56.1678 78.0597 55.0156 75.17 55H74.82C71.9303 55.0156 69.1628 56.1678 67.1156 58.2074C65.0685 60.2471 63.9062 63.0103 63.88 65.9V85H86.32V82Z" fill="#FF5F46"/>
<path d="M75.1901 44.66H74.8001C69.3011 44.6653 64.0289 46.8521 60.1405 50.7404C56.2521 54.6288 54.0653 59.901 54.0601 65.4V82H49.9301C48.3388 82 46.8126 82.6321 45.6874 83.7573C44.5622 84.8826 43.9301 86.4087 43.9301 88V129.4C43.9301 130.991 44.5622 132.517 45.6874 133.643C46.8126 134.768 48.3388 135.4 49.9301 135.4H100.06C101.651 135.4 103.177 134.768 104.303 133.643C105.428 132.517 106.06 130.991 106.06 129.4V87.91C106.06 86.3187 105.428 84.7925 104.303 83.6673C103.177 82.5421 101.651 81.91 100.06 81.91H95.9401V65.4C95.9321 59.9001 93.7431 54.6279 89.8531 50.7398C85.9632 46.8517 80.6899 44.6653 75.1901 44.66ZM100.06 85C100.856 85 101.619 85.316 102.181 85.8787C102.744 86.4413 103.06 87.2043 103.06 88V129.3C103.06 130.096 102.744 130.859 102.181 131.421C101.619 131.984 100.856 132.3 100.06 132.3H49.9401C49.1444 132.3 48.3813 131.984 47.8187 131.421C47.2561 130.859 46.9401 130.096 46.9401 129.3V87.91C46.9401 87.1143 47.2561 86.3513 47.8187 85.7887C48.3813 85.226 49.1444 84.91 49.9401 84.91H57.0601V65.4C57.0653 60.6967 58.9361 56.1875 62.2618 52.8617C65.5876 49.536 70.0967 47.6653 74.8001 47.66H75.1901C79.8951 47.6626 84.4068 49.5322 87.7347 52.8582C91.0627 56.1842 92.9348 60.6949 92.9401 65.4V85H100.06Z" fill="#FF5F46"/>
<path d="M32.83 85H37.1V82H32.83C28.5072 81.8938 24.3971 80.102 21.3772 77.007C18.3574 73.912 16.667 69.7592 16.667 65.435C16.667 61.1109 18.3574 56.958 21.3772 53.8631C24.3971 50.7681 28.5072 48.9762 32.83 48.87C34.6751 48.8656 36.5076 49.1732 38.25 49.78L39.1 50.1L41.1 50.9V48.7C41.0949 48.6134 41.0949 48.5266 41.1 48.44C41.432 40.8833 44.4194 33.6859 49.5362 28.1153C54.6531 22.5446 61.5713 18.9577 69.0727 17.9863C76.5741 17.0149 84.1777 18.7211 90.5447 22.8047C96.9118 26.8882 101.634 33.0871 103.88 40.31C101.255 41.48 98.8652 43.1203 96.83 45.15L99 47.26C100.88 45.3551 103.121 43.8436 105.592 42.8134C108.062 41.7833 110.713 41.2553 113.39 41.26C118.708 41.3779 123.768 43.5732 127.487 47.3758C131.206 51.1784 133.289 56.286 133.289 61.605C133.289 66.9241 131.206 72.0317 127.487 75.8343C123.768 79.6369 118.708 81.8321 113.39 81.95V84.95C116.744 84.9577 120.061 84.2425 123.114 82.8532C126.168 81.4638 128.886 79.4329 131.084 76.8987C133.281 74.3645 134.907 71.3865 135.851 68.1674C136.794 64.9484 137.033 61.5638 136.551 58.2441C136.069 54.9245 134.877 51.7477 133.057 48.93C131.237 46.1122 128.831 43.7198 126.003 41.9155C123.175 40.1112 119.992 38.9374 116.669 38.474C113.347 38.0106 109.964 38.2684 106.75 39.23C104.306 31.4949 99.261 24.8438 92.4707 20.406C85.6803 15.9681 77.5633 14.017 69.4978 14.8838C61.4323 15.7507 53.9154 19.3821 48.2231 25.1615C42.5309 30.941 39.0141 38.5123 38.27 46.59C35.5845 45.8355 32.7687 45.6639 30.0114 46.0865C27.2542 46.5092 24.6191 47.5164 22.2829 49.0407C19.9467 50.565 17.9634 52.5711 16.4659 54.9245C14.9684 57.278 13.9913 59.9244 13.6001 62.6863C13.2089 65.4482 13.4127 68.2618 14.1978 70.9385C14.9829 73.6153 16.3312 76.0932 18.1522 78.2063C19.9732 80.3193 22.225 82.0187 24.7564 83.1904C27.2879 84.3621 30.0406 84.9791 32.83 85Z" fill="#FF5F46"/>
<path d="M74.9999 100.3C73.3564 100.3 71.7497 100.787 70.3832 101.7C69.0166 102.614 67.9515 103.911 67.3225 105.43C66.6935 106.948 66.529 108.619 66.8496 110.231C67.1703 111.843 67.9617 113.324 69.1239 114.486C70.2861 115.648 71.7668 116.44 73.3787 116.76C74.9907 117.081 76.6616 116.916 78.18 116.287C79.6985 115.658 80.9963 114.593 81.9095 113.227C82.8226 111.86 83.3099 110.254 83.3099 108.61C83.3073 106.407 82.4309 104.295 80.8731 102.737C79.3152 101.179 77.2031 100.303 74.9999 100.3ZM74.9999 113.92C73.9497 113.92 72.9231 113.609 72.0499 113.025C71.1766 112.442 70.496 111.612 70.0941 110.642C69.6922 109.672 69.5871 108.604 69.792 107.574C69.9969 106.544 70.5026 105.598 71.2452 104.855C71.9878 104.113 72.934 103.607 73.964 103.402C74.9941 103.197 76.0617 103.302 77.032 103.704C78.0023 104.106 78.8316 104.787 79.415 105.66C79.9985 106.533 80.3099 107.56 80.3099 108.61C80.3073 110.017 79.747 111.367 78.7518 112.362C77.7565 113.357 76.4074 113.917 74.9999 113.92Z" fill="#FF5F46"/>
</svg>
